<?xml version="1.0" encoding="utf-8"?>
<!-- Generator: Adobe Illustrator 23.0.1, SVG Export Plug-In . SVG Version: 6.00 Build 0)  -->
<svg version="1.1" id="Capa_1" xmlns="http://www.w3.org/2000/svg" xmlns:xlink="http://www.w3.org/1999/xlink" x="0px" y="0px"
	 viewBox="0 0 494.3 494.3" style="enable-background:new 0 0 494.3 494.3;" xml:space="preserve">
<style type="text/css">
	.st0{fill:#388E3C;}
</style>
<path class="st0" d="M402.9,451.8c2.3-3.5,3.9-7.1,3.9-11c0-20-33.7-36.2-75.9-36.9c4.2-5.1,6.9-10.9,6.9-17.1
	c0-18.9-22.1-34.3-49.5-34.5c1.9-2.9,3.2-6,3.2-9.3c0-12.4-15.2-22.7-36.1-26.3c10.5-24,23.8-39.7,35.1-49.5
	c7.5,7.2,18.3,10.4,29.1,7.5c32.2-8.9,43.1-54.8,46.4-74.9c0.3-1.9-0.4-3.8-2-5c-1.5-1.2-3.6-1.4-5.3-0.7
	c-14.5,6.4-43.5,18.9-55.3,22.2c-15.8,4.4-25.1,20.6-21.2,36.4c-10.2,8.4-21.7,20.7-32.1,38.3c-0.6-56.8,8.3-124.1,15.3-168
	c19-2.7,33.6-18.9,33.6-38.6c0-15.9,5.6-56.3,8.5-76.6c0.4-2.5-0.7-4.9-2.7-6.4c-2-1.5-4.6-1.8-6.9-0.7
	c-23.9,11.1-77.2,40.6-77.2,83.7c0,14.7,8.3,27.4,20.3,34.1c-3.7,23-7.9,52.4-11,83.6c-4.8-9.2-10-16.8-15-23
	c7-14.8,1.1-32.5-13.6-39.9c-11-5.6-36.9-23.6-49.9-32.7c-1.6-1.1-3.6-1.3-5.4-0.4c-1.7,0.9-2.8,2.6-2.9,4.5
	c-0.7,20.3,0.9,67.5,30.7,82.6c9.9,5,21.2,4,29.9-1.6c8.3,10.7,17.2,26.4,22.9,48.2c-1.7,26.4-2.2,52.7-0.6,76.4
	c-22.3,3.1-38.8,13.9-38.8,26.8c0,1.9,0.4,3.8,1,5.6c-2.5-0.2-5-0.4-7.6-0.4c-37.9,0-68.6,16.4-68.6,36.6c0,7.9,4.7,15.1,12.6,21.1
	c-20.3,5.5-35.3,22.7-35.3,43.3c0,4.3,0.9,8.4,2.1,12.4h-4.1c-9.1,0-16.5,7.4-16.5,16.5s7.4,16.5,16.5,16.5h314.4
	c11.8,0,21.4-9.6,21.4-21.4C423.3,461.5,414.2,452.3,402.9,451.8z"/>
</svg>
