<?xml version="1.0" encoding="utf-8"?>
<!-- Generator: Adobe Illustrator 23.0.1, SVG Export Plug-In . SVG Version: 6.00 Build 0)  -->
<svg version="1.1" id="Capa_1" xmlns="http://www.w3.org/2000/svg" xmlns:xlink="http://www.w3.org/1999/xlink" x="0px" y="0px"
	 viewBox="0 0 495.1 495.1" style="enable-background:new 0 0 495.1 495.1;" xml:space="preserve">
<style type="text/css">
	.st0{fill:#388E3C;}
</style>
<path class="st0" d="M402,82.3l0-0.1c0,0-1.7-6.1-7-13.6c-11.1-16.3-31.2-26-58.1-21.8c6.2-6.4,16.6-13.1,11-19.8
	c-4.6-5.4-8.8-1.5-13.2,2.3c-11.1,9.4-26.7,24.7-42.4,42.5C281.4,14.1,235.9-5.9,205,1.5l-0.2,0c-1.4,0.4-2.6,1.6-2.7,3.2
	c-0.1,1.9,1.4,3.6,3.3,3.7c0,0,7.2,0.4,16.9,4.5c25.3,10.1,32.3,30.6,32.2,56.3c0.2,6.1-2.5,17.6-1.4,23.4
	c1.1,6.6,5.3,11.6,10.7,14.6c-4.9,6.7-9.6,13.6-14.7,20.8c-2.7,4.1-8.8,14.5-13.5,22.6C200,77,136.6,58.2,95.3,80.9
	c-2.1,1.2-2.7,3-2.2,4.7c0.5,2.2,2.8,3.6,5,3.1c0,0,9.2-1.9,23.2-0.8c9.6,0.8,32.5,9.3,42.3,19.4c31.9,32.9,20,52.6,28,69.3
	c4,8.3,13.9,13.8,22.6,14.7c-13.4,30.6-11,26.1-17.1,44.2c-2,6.4-4.3,12.7-6,19.1c-0.1,0.4-0.1,0.7-0.2,1h-46.1
	c-9.2,0-16.7,7.5-16.7,16.7c0,5.4,2.8,10,6.8,13.1v144.7c0,35.9,29.2,65.1,65.1,65.1s65.1-29.2,65.1-65.1V285.3
	c4-3,6.8-7.6,6.8-13.1c0-9.2-7.5-16.7-16.7-16.7h-33.1c9.1-37,6.5-24.9,15-50.6c22.6-1.1,16.7-20.2,59.5-48.8
	c8-4.8,22.7-8.5,35.5-7.9c12.6,0.6,33.1,8.3,42.5,16.4c1.4,1.2,3.4,1.4,5,0.3c1.9-1.3,2.4-3.9,1.1-5.8l-0.1-0.2
	c-16.4-24.5-56.4-46.5-106.1-30.8c11-18.3,20.7-31.7,32.6-47.1c14.6,14,24.9-4.4,42.9-11.2c13.6-5.3,27-3.1,37.6,5.3
	c6.3,4.8,9.2,9.3,9.2,9.3c0.7,1,1.9,1.5,3.1,1.2C401.5,85.3,402.4,83.8,402,82.3z M180.4,387.3h-20.5v-98.4h23.9
	C178.4,321.6,177,355.1,180.4,387.3z M240.1,288.9v98.4h-20.9c-4.8-28.1-7.6-59.7-2.6-98.4H240.1z"/>
</svg>
