<?xml version="1.0" encoding="utf-8"?>
<!-- Generator: Adobe Illustrator 23.0.1, SVG Export Plug-In . SVG Version: 6.00 Build 0)  -->
<svg version="1.1" id="Layer_1" xmlns="http://www.w3.org/2000/svg" xmlns:xlink="http://www.w3.org/1999/xlink" x="0px" y="0px"
	 viewBox="0 0 100 100" style="enable-background:new 0 0 100 100;" xml:space="preserve">
<style type="text/css">
	.st0{fill:#388E3C;}
</style>
<g>
	<path class="st0" d="M13,30c2-6.4,6.3-8.4,12.9-8c8.1,0.5,16.2,0.1,24.6,0.1c0,2.6,0,4.7,0,7.5c-9.3,0-18.7,0-28.4,0
		c0,17.4,0,34.1,0,51.2c16.4,0,32.8,0,49.9,0c0-9.8,0-19.5,0-29.5c2.8,0,4.9,0,7.8,0c0,3.9,0,7.8,0,11.7c0,5.5,0.1,11,0,16.5
		c-0.1,5.5-2.8,8.3-8.2,8.3c-16.5,0.1-33-0.1-49.5,0.1c-5.9,0.1-7.4-3.9-9.1-8.1C13,63.3,13,46.7,13,30z"/>
	<path class="st0" d="M93,30c-4,0-9.1-1.4-11.6,0.6c-2.2,1.7-1.6,7.2-2.3,11.5c-1.9,0-4.2,0-6.5,0c-0.4-4,0.6-9.1-1.5-11.1
		c-2-2-7.1-1.1-11.2-1.5c0-2.2,0-4.4,0-6.5c0.5-0.3,0.8-0.6,1-0.6C72.6,21.5,72.6,21.5,72,9c2.7,0,5.3,0,8,0c0,15.9-2.9,13,13,13
		C93,24.7,93,27.3,93,30z"/>
	<path class="st0" d="M62.8,38.9c0,2.6,0,4.8,0,7.5c-10.6,0-21.2,0-32.1,0c0-2.3,0-4.6,0-7.5C41.2,38.9,51.8,38.9,62.8,38.9z"/>
	<path class="st0" d="M30.5,71.4c0-2.4,0-4.7,0-7.4c10.7,0,21.3,0,32.3,0c0,2.5,0,4.7,0,7.4C52,71.4,41.4,71.4,30.5,71.4z"/>
	<path class="st0" d="M62.7,51.4c0,2.5,0,4.7,0,7.2c-10.8,0-21.3,0-32.2,0c0-2.5,0-4.7,0-7.2C41.2,51.4,51.8,51.4,62.7,51.4z"/>
</g>
</svg>
