<?xml version="1.0" encoding="utf-8"?>
<!-- Generator: Adobe Illustrator 16.0.3, SVG Export Plug-In . SVG Version: 6.00 Build 0)  -->
<!DOCTYPE svg PUBLIC "-//W3C//DTD SVG 1.1//EN" "http://www.w3.org/Graphics/SVG/1.1/DTD/svg11.dtd">
<svg version="1.1" id="Capa_1" focusable="false" xmlns="http://www.w3.org/2000/svg" xmlns:xlink="http://www.w3.org/1999/xlink"
	 x="0px" y="0px" width="612px" height="792px" viewBox="0 0 612 792" enable-background="new 0 0 612 792" xml:space="preserve">
<path d="M554.625,204.75H413.507c-25.557,0-38.358,30.899-20.285,48.972l38.729,38.728l-87.7,87.712l-87.7-87.7
	c-14.941-14.941-39.158-14.941-54.088,0l-82.106,82.106c-7.471,7.471-7.471,19.58,0,27.05l27.038,27.038
	c7.471,7.471,19.579,7.471,27.05,0l55.056-55.068l87.7,87.7c14.941,14.941,39.158,14.941,54.088,0l114.75-114.75l38.728,38.728
	c18.073,18.073,48.973,5.271,48.973-20.285V223.875C573.75,213.309,565.191,204.75,554.625,204.75z"/>
</svg>
