<?xml version="1.0" encoding="utf-8"?>
<!-- Generator: Adobe Illustrator 23.0.1, SVG Export Plug-In . SVG Version: 6.00 Build 0)  -->
<svg version="1.1" id="Capa_1" xmlns="http://www.w3.org/2000/svg" xmlns:xlink="http://www.w3.org/1999/xlink" x="0px" y="0px"
	 viewBox="0 0 490.7 490.7" style="enable-background:new 0 0 490.7 490.7;" xml:space="preserve">
<style type="text/css">
	.st0{fill:#388E3C;}
</style>
<g>
	<path class="st0" d="M250.8,2.9c-1.2-1.8-3.3-2.9-5.5-2.9c-2.2,0-4.3,1.1-5.5,2.9C227.8,20.9,200,65.2,200,93.5
		c0,36.2,20.3,65.5,45.3,65.5c25,0,45.3-29.3,45.3-65.5C290.7,65.2,262.9,20.9,250.8,2.9z"/>
	<path class="st0" d="M368.9,231.9c20-20,31.7-70.9,35.9-92.2c0.4-2.2-0.3-4.4-1.8-6c-1.6-1.6-3.8-2.2-6-1.8
		c-21.2,4.1-72.1,15.9-92.2,35.9c-25.6,25.6-32,60.7-14.3,78.4C308.2,263.9,343.3,257.5,368.9,231.9z"/>
	<path class="st0" d="M433.3,284.6c-1.5-1.6-3.8-2.2-5.9-1.8c-24.7,4.7-91.1,19.4-116.7,45C278.9,359.5,271,403,293,425
		c21.9,21.9,65.5,14,97.2-17.7c25.6-25.6,40.3-92,45-116.7C435.6,288.4,434.9,286.1,433.3,284.6z"/>
	<path class="st0" d="M93.7,132c-2.2-0.4-4.4,0.3-6,1.8c-1.6,1.6-2.3,3.8-1.8,6c4.1,21.2,15.9,72.1,35.9,92.2
		c25.6,25.6,60.7,32,78.4,14.3c17.7-17.7,11.3-52.8-14.3-78.4C165.8,147.8,114.9,136.1,93.7,132z"/>
	<path class="st0" d="M63.3,282.7c-2.2-0.4-4.4,0.3-5.9,1.8c-1.6,1.6-2.2,3.8-1.8,5.9c4.7,24.7,19.3,91.1,45,116.7
		c31.7,31.8,75.3,39.7,97.2,17.7c22-22,14-65.5-17.7-97.2C154.4,302.1,88,287.5,63.3,282.7z"/>
	<path class="st0" d="M245.3,176.7c-9.1,0-16.5,7.4-16.5,16.5v281c0,9.1,7.4,16.5,16.5,16.5c9.1,0,16.5-7.4,16.5-16.5v-281
		C261.8,184.1,254.5,176.7,245.3,176.7z"/>
</g>
</svg>
