<?xml version="1.0" encoding="iso-8859-1"?>
<!-- Generator: Adobe Illustrator 18.0.0, SVG Export Plug-In . SVG Version: 6.00 Build 0)  -->
<!DOCTYPE svg PUBLIC "-//W3C//DTD SVG 1.1//EN" "http://www.w3.org/Graphics/SVG/1.1/DTD/svg11.dtd">
<svg version="1.1" id="Capa_1" xmlns="http://www.w3.org/2000/svg" xmlns:xlink="http://www.w3.org/1999/xlink" x="0px" y="0px"
	 viewBox="0 0 495.053 495.053" style="enable-background:new 0 0 495.053 495.053;" xml:space="preserve">
<path d="M401.985,82.295l-0.032-0.138c0,0-1.659-6.05-7.018-13.644c-11.067-16.327-31.234-26.043-58.127-21.843
	c6.204-6.437,16.635-13.122,11.036-19.752c-4.592-5.437-8.788-1.489-13.249,2.288c-11.067,9.408-26.73,24.699-42.353,42.516
	C281.432,14.1,235.853-5.913,204.994,1.467l-0.182,0.04c-1.446,0.352-2.552,1.605-2.651,3.165c-0.099,1.913,1.352,3.556,3.256,3.663
	c0,0,7.16,0.423,16.88,4.536c25.312,10.108,32.31,30.583,32.211,56.294c0.229,6.097-2.474,17.579-1.43,23.384
	c1.138,6.551,5.338,11.581,10.743,14.561c-4.852,6.674-9.621,13.624-14.651,20.788c-2.659,4.136-8.78,14.535-13.549,22.637
	c-35.579-73.495-99.048-92.354-140.274-69.681c-2.051,1.182-2.667,2.995-2.244,4.73c0.537,2.229,2.782,3.604,5.01,3.066
	c0-0.008,9.217-1.932,23.214-0.763c9.606,0.802,32.451,9.27,42.291,19.424c31.883,32.905,19.97,52.588,27.963,69.254
	c3.968,8.311,13.896,13.849,22.636,14.73c-13.371,30.631-11.001,26.105-17.116,44.179c-1.987,6.413-4.283,12.688-5.974,19.061
	c-0.067,0.352-0.146,0.684-0.229,1.027h-46.1c-9.21,0-16.666,7.46-16.666,16.667c0,5.421,2.766,10.021,6.773,13.063v144.652
	c0,35.897,29.2,65.109,65.109,65.109c35.909,0,65.109-29.212,65.109-65.109V285.292c4.006-3.042,6.772-7.642,6.772-13.063
	c0-9.207-7.456-16.667-16.666-16.667h-33.061c9.084-36.952,6.461-24.941,15.023-50.631c22.645-1.15,16.718-20.219,59.463-48.755
	c8.009-4.761,22.668-8.482,35.502-7.867c12.618,0.605,33.14,8.309,42.484,16.39c1.367,1.197,3.434,1.375,5.03,0.308
	c1.904-1.276,2.41-3.857,1.122-5.761l-0.13-0.194c-16.441-24.51-56.4-46.459-106.096-30.832
	c10.989-18.314,20.705-31.748,32.638-47.099c14.584,14.031,24.854-4.378,42.907-11.198c13.577-5.251,27.003-3.109,37.616,5.314
	c6.318,4.801,9.246,9.309,9.246,9.309c0.652,0.976,1.857,1.49,3.063,1.165C401.495,85.306,402.376,83.773,401.985,82.295z
	 M180.381,387.31h-20.48v-98.415h23.897C178.362,321.576,176.963,355.067,180.381,387.31z M240.121,288.895v98.415h-20.918
	c-4.801-28.07-7.634-59.728-2.635-98.415H240.121z"/>
<g>
</g>
<g>
</g>
<g>
</g>
<g>
</g>
<g>
</g>
<g>
</g>
<g>
</g>
<g>
</g>
<g>
</g>
<g>
</g>
<g>
</g>
<g>
</g>
<g>
</g>
<g>
</g>
<g>
</g>
</svg>
